<mxfile host="drawio-plugin" modified="2021-10-29T14:04:03.555Z" agent="5.0 (X11; Linux x86_64) AppleWebKit/537.36 (KHTML, like Gecko) Chrome/89.0.4389.114 Safari/537.36" etag="PmlS-rrF5Dcxv3W4FrvT" version="14.7.4" type="embed"><diagram id="23iRSUPoRavnBvh4doch" name="Page-1"><mxGraphModel dx="1826" dy="323" grid="1" gridSize="10" guides="1" tooltips="1" connect="1" arrows="1" fold="1" page="1" pageScale="1" pageWidth="827" pageHeight="1169" math="0" shadow="0"><root><mxCell id="0"/><mxCell id="1" parent="0"/><mxCell id="276" value="Car" style="swimlane;childLayout=stackLayout;horizontal=1;startSize=30;horizontalStack=0;rounded=1;fontSize=14;fontStyle=0;strokeWidth=2;resizeParent=0;resizeLast=1;shadow=0;dashed=0;align=center;fillColor=#f8cecc;strokeColor=#b85450;gradientColor=#ea6b66;" parent="1" vertex="1"><mxGeometry x="-802" y="582.5" width="150" height="110" as="geometry"/></mxCell><mxCell id="277" value="id: serial (PK)&#10;licence_plate: varchar(15)&#10;id_name: int (FK)&#10;id_branch: int (FK)&#10;&#10;&#10;" style="align=left;strokeColor=none;fillColor=none;spacingLeft=4;fontSize=12;verticalAlign=top;resizable=0;rotatable=0;part=1;" parent="276" vertex="1"><mxGeometry y="30" width="150" height="150" as="geometry"/></mxCell><mxCell id="278" value="" style="whiteSpace=wrap;html=1;rounded=1;shadow=0;dashed=0;fontSize=14;fontStyle=0;strokeColor=#d6b656;strokeWidth=2;fillColor=#fff2cc;gradientColor=#ffd966;startSize=30;" parent="276" vertex="1"><mxGeometry y="180" width="150" height="-70" as="geometry"/></mxCell><mxCell id="279" value="Customer" style="swimlane;childLayout=stackLayout;horizontal=1;startSize=30;horizontalStack=0;rounded=1;fontSize=14;fontStyle=0;strokeWidth=2;resizeParent=0;resizeLast=1;shadow=0;dashed=0;align=center;fillColor=#d5e8d4;strokeColor=#82b366;gradientColor=#97d077;" parent="1" vertex="1"><mxGeometry x="-204.5" y="567.5" width="160" height="90" as="geometry"/></mxCell><mxCell id="280" value="id: serial (PK)&#10;first_name: varchar(25)&#10;second_name: varchar(25)&#10;&#10;&#10;" style="align=left;strokeColor=none;fillColor=none;spacingLeft=4;fontSize=12;verticalAlign=top;resizable=0;rotatable=0;part=1;" parent="279" vertex="1"><mxGeometry y="30" width="160" height="60" as="geometry"/></mxCell><mxCell id="281" value="" style="fontSize=12;html=1;endArrow=ERzeroToMany;startArrow=ERmandOne;exitX=1.006;exitY=0.151;exitDx=0;exitDy=0;entryX=-0.012;entryY=0.888;entryDx=0;entryDy=0;exitPerimeter=0;entryPerimeter=0;" parent="1" source="286" target="283" edge="1"><mxGeometry width="100" height="100" relative="1" as="geometry"><mxPoint x="-379.5" y="897.5" as="sourcePoint"/><mxPoint x="-279.5" y="797.5" as="targetPoint"/></mxGeometry></mxCell><mxCell id="282" value="Order" style="swimlane;childLayout=stackLayout;horizontal=1;startSize=30;horizontalStack=0;rounded=1;fontSize=14;fontStyle=0;strokeWidth=2;resizeParent=0;resizeLast=1;shadow=0;dashed=0;align=center;fillColor=#1ba1e2;strokeColor=#006EAF;fontColor=#ffffff;" parent="1" vertex="1"><mxGeometry x="-389.5" y="577.5" width="150" height="140" as="geometry"/></mxCell><mxCell id="283" value="id: serial (PK)&#10;id_customer: int (FK)&#10;id_branch:int (FK)&#10;price:int&#10;date:DATE&#10;period:varchar(15)" style="align=left;strokeColor=none;fillColor=none;spacingLeft=4;fontSize=12;verticalAlign=top;resizable=0;rotatable=0;part=1;" parent="282" vertex="1"><mxGeometry y="30" width="150" height="110" as="geometry"/></mxCell><mxCell id="284" value="City" style="swimlane;childLayout=stackLayout;horizontal=1;startSize=30;horizontalStack=0;rounded=1;fontSize=14;fontStyle=0;strokeWidth=2;resizeParent=0;resizeLast=1;shadow=0;dashed=0;align=center;fillColor=#ffcd28;strokeColor=#d79b00;gradientColor=#ffa500;" parent="1" vertex="1"><mxGeometry x="-159.5" y="862.5" width="100" height="90" as="geometry"/></mxCell><mxCell id="285" value="id: serial (PK)&#10;city: varchar(25)&#10;&#10;" style="align=left;strokeColor=none;fillColor=none;spacingLeft=4;fontSize=12;verticalAlign=top;resizable=0;rotatable=0;part=1;" parent="284" vertex="1"><mxGeometry y="30" width="100" height="60" as="geometry"/></mxCell><mxCell id="286" value="Branch" style="swimlane;childLayout=stackLayout;horizontal=1;startSize=30;horizontalStack=0;rounded=1;fontSize=14;fontStyle=0;strokeWidth=2;resizeParent=0;resizeLast=1;shadow=0;dashed=0;align=center;fillColor=#dae8fc;strokeColor=#6c8ebf;gradientColor=#7ea6e0;" parent="1" vertex="1"><mxGeometry x="-574.5" y="692.5" width="120" height="95" as="geometry"/></mxCell><mxCell id="287" value="id: serial (PK)&#10;name: varchar(25)&#10;id_address: int (FK)&#10;" style="align=left;strokeColor=none;fillColor=none;spacingLeft=4;fontSize=12;verticalAlign=top;resizable=0;rotatable=0;part=1;" parent="286" vertex="1"><mxGeometry y="30" width="120" height="150" as="geometry"/></mxCell><mxCell id="288" value="" style="whiteSpace=wrap;html=1;rounded=1;shadow=0;dashed=0;fontSize=14;fontStyle=0;strokeColor=#d6b656;strokeWidth=2;fillColor=#fff2cc;gradientColor=#ffd966;startSize=30;" parent="286" vertex="1"><mxGeometry y="180" width="120" height="-85" as="geometry"/></mxCell><mxCell id="289" value="Address" style="swimlane;childLayout=stackLayout;horizontal=1;startSize=30;horizontalStack=0;rounded=1;fontSize=14;fontStyle=0;strokeWidth=2;resizeParent=0;resizeLast=1;shadow=0;dashed=0;align=center;fillColor=#ffcd28;strokeColor=#d79b00;gradientColor=#ffa500;" parent="1" vertex="1"><mxGeometry x="-379.5" y="857.5" width="130" height="100" as="geometry"/></mxCell><mxCell id="290" value="id: serial (PK)&#10;id_city: int (FK)&#10;street: varchar(35)&#10;building: varchar(10)" style="align=left;strokeColor=none;fillColor=none;spacingLeft=4;fontSize=12;verticalAlign=top;resizable=0;rotatable=0;part=1;" parent="289" vertex="1"><mxGeometry y="30" width="130" height="70" as="geometry"/></mxCell><mxCell id="291" value="" style="fontSize=12;html=1;endArrow=ERzeroToMany;startArrow=ERmandOne;exitX=-0.003;exitY=0.145;exitDx=0;exitDy=0;exitPerimeter=0;" parent="1" source="282" edge="1"><mxGeometry width="100" height="100" relative="1" as="geometry"><mxPoint x="-390.5" y="588.5" as="sourcePoint"/><mxPoint x="-462.5" y="597.5" as="targetPoint"/></mxGeometry></mxCell><mxCell id="292" value="Phone" style="swimlane;childLayout=stackLayout;horizontal=1;startSize=30;horizontalStack=0;rounded=1;fontSize=14;fontStyle=0;strokeWidth=2;resizeParent=0;resizeLast=1;shadow=0;dashed=0;align=center;fillColor=#ffcd28;strokeColor=#d79b00;gradientColor=#ffa500;" parent="1" vertex="1"><mxGeometry x="-359.25" y="750" width="89.5" height="72.5" as="geometry"/></mxCell><mxCell id="293" value="id: serial (PK)&#10;number: int" style="align=left;strokeColor=none;fillColor=none;spacingLeft=4;fontSize=12;verticalAlign=top;resizable=0;rotatable=0;part=1;" parent="292" vertex="1"><mxGeometry y="30" width="89.5" height="42.5" as="geometry"/></mxCell><mxCell id="294" value="" style="fontSize=12;html=1;endArrow=ERzeroToMany;startArrow=ERmandOne;entryX=0;entryY=0.25;entryDx=0;entryDy=0;exitX=-0.022;exitY=0.312;exitDx=0;exitDy=0;exitPerimeter=0;edgeStyle=orthogonalEdgeStyle;" parent="1" source="287" target="312" edge="1"><mxGeometry width="100" height="100" relative="1" as="geometry"><mxPoint x="-459.5" y="765" as="sourcePoint"/><mxPoint x="-459.5" y="707.5" as="targetPoint"/><Array as="points"><mxPoint x="-594.5" y="769.5"/><mxPoint x="-594.5" y="827.5"/></Array></mxGeometry></mxCell><mxCell id="295" value="Model" style="swimlane;childLayout=stackLayout;horizontal=1;startSize=30;horizontalStack=0;rounded=1;fontSize=14;fontStyle=0;strokeWidth=2;resizeParent=0;resizeLast=1;shadow=0;dashed=0;align=center;fillColor=#f8cecc;strokeColor=#b85450;gradientColor=#ea6b66;" parent="1" vertex="1"><mxGeometry x="-797" y="757.5" width="145" height="80" as="geometry"/></mxCell><mxCell id="296" value="id: serial (PK)&#10;name: varchar(25)&#10;id_engine: int (FK)" style="align=left;strokeColor=none;fillColor=none;spacingLeft=4;fontSize=12;verticalAlign=top;resizable=0;rotatable=0;part=1;" parent="295" vertex="1"><mxGeometry y="30" width="145" height="50" as="geometry"/></mxCell><mxCell id="297" value="" style="edgeStyle=orthogonalEdgeStyle;fontSize=12;html=1;endArrow=ERzeroToMany;startArrow=ERmandOne;exitX=-0.03;exitY=0.21;exitDx=0;exitDy=0;entryX=1.01;entryY=0.127;entryDx=0;entryDy=0;exitPerimeter=0;entryPerimeter=0;" parent="1" source="286" target="277" edge="1"><mxGeometry width="100" height="100" relative="1" as="geometry"><mxPoint x="-454.5" y="562.5" as="sourcePoint"/><mxPoint x="-449.5" y="647.5" as="targetPoint"/></mxGeometry></mxCell><mxCell id="298" value="Engine" style="swimlane;childLayout=stackLayout;horizontal=1;startSize=30;horizontalStack=0;rounded=1;fontSize=14;fontStyle=0;strokeWidth=2;resizeParent=0;resizeLast=1;shadow=0;dashed=0;align=center;gradientColor=#ea6b66;fillColor=#f8cecc;strokeColor=#b85450;" parent="1" vertex="1"><mxGeometry x="-797" y="875" width="145" height="70" as="geometry"/></mxCell><mxCell id="299" value="id: serial (PK)&#10;engine: varchar(15)&#10;" style="align=left;strokeColor=none;fillColor=none;spacingLeft=4;fontSize=12;verticalAlign=top;resizable=0;rotatable=0;part=1;" parent="298" vertex="1"><mxGeometry y="30" width="145" height="40" as="geometry"/></mxCell><mxCell id="300" value="" style="edgeStyle=entityRelationEdgeStyle;fontSize=12;html=1;endArrow=ERzeroToMany;startArrow=ERmandOne;exitX=1;exitY=0;exitDx=0;exitDy=0;entryX=1;entryY=0.5;entryDx=0;entryDy=0;" parent="1" source="299" target="296" edge="1"><mxGeometry width="100" height="100" relative="1" as="geometry"><mxPoint x="-644.5" y="627.5" as="sourcePoint"/><mxPoint x="-604.5" y="627.5" as="targetPoint"/></mxGeometry></mxCell><mxCell id="301" value="Car_order" style="swimlane;childLayout=stackLayout;horizontal=1;startSize=30;horizontalStack=0;rounded=1;fontSize=14;fontStyle=0;strokeWidth=2;resizeParent=0;resizeLast=1;shadow=0;dashed=0;align=center;fillColor=#f5f5f5;strokeColor=#666666;gradientColor=#b3b3b3;" parent="1" vertex="1"><mxGeometry x="-574.5" y="577.5" width="110" height="70" as="geometry"/></mxCell><mxCell id="302" value="id_order: int (FK)&#10;id_car: int (FK)" style="align=left;strokeColor=none;fillColor=none;spacingLeft=4;fontSize=12;verticalAlign=top;resizable=0;rotatable=0;part=1;" parent="301" vertex="1"><mxGeometry y="30" width="110" height="40" as="geometry"/></mxCell><mxCell id="303" value="" style="fontSize=12;html=1;endArrow=ERzeroToMany;startArrow=ERmandOne;entryX=0;entryY=0.25;entryDx=0;entryDy=0;" parent="1" target="301" edge="1"><mxGeometry width="100" height="100" relative="1" as="geometry"><mxPoint x="-651.5" y="595.5" as="sourcePoint"/><mxPoint x="-454.50000000000045" y="597.5" as="targetPoint"/></mxGeometry></mxCell><mxCell id="304" value="" style="fontSize=12;html=1;endArrow=ERzeroToMany;startArrow=ERzeroToOne;entryX=1;entryY=0;entryDx=0;entryDy=0;exitX=0;exitY=0.167;exitDx=0;exitDy=0;exitPerimeter=0;" parent="1" source="280" target="283" edge="1"><mxGeometry width="100" height="100" relative="1" as="geometry"><mxPoint x="-204.5" y="662.5" as="sourcePoint"/><mxPoint x="-134.5" y="577.5" as="targetPoint"/></mxGeometry></mxCell><mxCell id="305" value="" style="edgeStyle=orthogonalEdgeStyle;fontSize=12;html=1;endArrow=ERzeroToMany;startArrow=ERzeroToOne;exitX=0;exitY=0.5;exitDx=0;exitDy=0;entryX=0;entryY=0;entryDx=0;entryDy=0;" parent="1" source="280" target="316" edge="1"><mxGeometry width="100" height="100" relative="1" as="geometry"><mxPoint x="-184.5" y="640" as="sourcePoint"/><mxPoint x="-229.05000000000018" y="640.16" as="targetPoint"/><Array as="points"><mxPoint x="-220" y="628"/><mxPoint x="-220" y="700"/></Array></mxGeometry></mxCell><mxCell id="307" value="" style="edgeStyle=elbowEdgeStyle;fontSize=12;html=1;endArrow=ERzeroToMany;startArrow=ERmandOne;entryX=1.005;entryY=0.389;entryDx=0;entryDy=0;entryPerimeter=0;exitX=1;exitY=0;exitDx=0;exitDy=0;" parent="1" source="296" target="277" edge="1"><mxGeometry width="100" height="100" relative="1" as="geometry"><mxPoint x="-614.5" y="787.5" as="sourcePoint"/><mxPoint x="-534.5" y="657.5" as="targetPoint"/><Array as="points"><mxPoint x="-624.5" y="727.5"/></Array></mxGeometry></mxCell><mxCell id="308" value="Customer_address" style="swimlane;childLayout=stackLayout;horizontal=1;startSize=30;horizontalStack=0;rounded=1;fontSize=14;fontStyle=0;strokeWidth=2;resizeParent=0;resizeLast=1;shadow=0;dashed=0;align=center;fillColor=#f5f5f5;strokeColor=#666666;gradientColor=#b3b3b3;" parent="1" vertex="1"><mxGeometry x="-204.5" y="757.5" width="145" height="90" as="geometry"/></mxCell><mxCell id="309" value="id_customer: int (FK)&#10;id_address: int (FK)" style="align=left;strokeColor=none;fillColor=none;spacingLeft=4;fontSize=12;verticalAlign=top;resizable=0;rotatable=0;part=1;" parent="308" vertex="1"><mxGeometry y="30" width="145" height="60" as="geometry"/></mxCell><mxCell id="310" value="" style="edgeStyle=orthogonalEdgeStyle;fontSize=12;html=1;endArrow=ERzeroToMany;startArrow=ERzeroToOne;entryX=0;entryY=0.75;entryDx=0;entryDy=0;exitX=1;exitY=0.25;exitDx=0;exitDy=0;" parent="1" source="289" target="308" edge="1"><mxGeometry width="100" height="100" relative="1" as="geometry"><mxPoint x="-534.5" y="997.5" as="sourcePoint"/><mxPoint x="-434.5" y="897.5" as="targetPoint"/><Array as="points"><mxPoint x="-224.5" y="882.5"/><mxPoint x="-224.5" y="825.5"/></Array></mxGeometry></mxCell><mxCell id="311" value="" style="edgeStyle=orthogonalEdgeStyle;fontSize=12;html=1;endArrow=ERzeroToOne;startArrow=ERmandOne;entryX=-0.022;entryY=0.151;entryDx=0;entryDy=0;exitX=-0.012;exitY=0.324;exitDx=0;exitDy=0;exitPerimeter=0;entryPerimeter=0;" parent="1" source="290" target="287" edge="1"><mxGeometry width="100" height="100" relative="1" as="geometry"><mxPoint x="-544.5" y="1077.5" as="sourcePoint"/><mxPoint x="-444.5" y="977.5" as="targetPoint"/><Array as="points"><mxPoint x="-604.5" y="910.5"/><mxPoint x="-604.5" y="745.5"/></Array></mxGeometry></mxCell><mxCell id="312" value="Branch_phone" style="swimlane;childLayout=stackLayout;horizontal=1;startSize=30;horizontalStack=0;rounded=1;fontSize=14;fontStyle=0;strokeWidth=2;resizeParent=0;resizeLast=1;shadow=0;dashed=0;align=center;fillColor=#f5f5f5;strokeColor=#666666;gradientColor=#b3b3b3;" parent="1" vertex="1"><mxGeometry x="-574.5" y="807.5" width="120" height="80" as="geometry"/></mxCell><mxCell id="313" value="id_phone: int (FK)&#10;id_branch: int (FK)" style="align=left;strokeColor=none;fillColor=none;spacingLeft=4;fontSize=12;verticalAlign=top;resizable=0;rotatable=0;part=1;" parent="312" vertex="1"><mxGeometry y="30" width="120" height="50" as="geometry"/></mxCell><mxCell id="314" value="" style="fontSize=12;html=1;endArrow=ERzeroToMany;startArrow=ERmandOne;entryX=1;entryY=0.25;entryDx=0;entryDy=0;edgeStyle=orthogonalEdgeStyle;" parent="1" target="309" edge="1"><mxGeometry width="100" height="100" relative="1" as="geometry"><mxPoint x="-40" y="600" as="sourcePoint"/><mxPoint x="-14.499999999999773" y="582.5" as="targetPoint"/><Array as="points"><mxPoint x="-10" y="600"/><mxPoint x="-10" y="803"/></Array></mxGeometry></mxCell><mxCell id="315" value="Customer_phone" style="swimlane;childLayout=stackLayout;horizontal=1;startSize=30;horizontalStack=0;rounded=1;fontSize=14;fontStyle=0;strokeWidth=2;resizeParent=0;resizeLast=1;shadow=0;dashed=0;align=center;gradientColor=#b3b3b3;fillColor=#f5f5f5;strokeColor=#666666;" parent="1" vertex="1"><mxGeometry x="-189.5" y="670" width="130" height="80" as="geometry"/></mxCell><mxCell id="316" value="id_customer: int (FK)&#10;id_phone: int (FK)" style="align=left;strokeColor=none;fillColor=none;spacingLeft=4;fontSize=12;verticalAlign=top;resizable=0;rotatable=0;part=1;" parent="315" vertex="1"><mxGeometry y="30" width="130" height="50" as="geometry"/></mxCell><mxCell id="317" value="" style="edgeStyle=orthogonalEdgeStyle;fontSize=12;html=1;endArrow=ERzeroToOne;startArrow=ERmandOne;exitX=1;exitY=0.25;exitDx=0;exitDy=0;entryX=0;entryY=0.5;entryDx=0;entryDy=0;" parent="1" source="293" target="316" edge="1"><mxGeometry width="100" height="100" relative="1" as="geometry"><mxPoint x="-510" y="1050" as="sourcePoint"/><mxPoint x="-410" y="950" as="targetPoint"/></mxGeometry></mxCell><mxCell id="318" value="" style="edgeStyle=orthogonalEdgeStyle;fontSize=12;html=1;endArrow=ERzeroToOne;startArrow=ERmandOne;exitX=0;exitY=0.25;exitDx=0;exitDy=0;entryX=1;entryY=0;entryDx=0;entryDy=0;" parent="1" source="293" target="313" edge="1"><mxGeometry width="100" height="100" relative="1" as="geometry"><mxPoint x="-259.75" y="785.625" as="sourcePoint"/><mxPoint x="-179.5" y="735" as="targetPoint"/><Array as="points"><mxPoint x="-410" y="791"/><mxPoint x="-410" y="838"/></Array></mxGeometry></mxCell><mxCell id="319" value="" style="fontSize=12;html=1;endArrow=ERzeroToMany;startArrow=ERmandOne;entryX=1;entryY=0.321;entryDx=0;entryDy=0;entryPerimeter=0;" edge="1" parent="1" target="290"><mxGeometry width="100" height="100" relative="1" as="geometry"><mxPoint x="-160" y="910" as="sourcePoint"/><mxPoint x="-381.29999999999995" y="715.1799999999998" as="targetPoint"/></mxGeometry></mxCell></root></mxGraphModel></diagram></mxfile>